<svg id="Layer_1" data-name="Layer 1" xmlns="http://www.w3.org/2000/svg" viewBox="0 0 1296 1728"><defs><style>.cls-1,.cls-3{fill:red;}.cls-1,.cls-4{stroke:blue;stroke-miterlimit:10;}.cls-1{stroke-width:1.13px;}.cls-2{fill:blue;}.cls-4{fill:none;stroke-width:0.83px;}</style></defs><path class="cls-1" d="M528.7,731.4c0-4.42-3.37-6.16-8.3-6.16-1.1,0-2,0-2.66.1a1.82,1.82,0,0,0-1.66,1.81v8.76a1.81,1.81,0,0,0,1.81,1.81h2.62C525.67,737.72,528.7,735,528.7,731.4Z"/><path class="cls-1" d="M529.88,748.68c0-5.15-4.43-7.27-9.76-7.27h-2.41a1.62,1.62,0,0,0-1.63,1.62v11.29a1.62,1.62,0,0,0,1.52,1.62c.74,0,1.61.06,2.57.06C525.22,756,529.88,754.16,529.88,748.68Z"/><path class="cls-2" d="M567,720H513.59a5.63,5.63,0,0,0-4.38,2.09,48.22,48.22,0,0,1,8.78-.76c4.88,0,8,.84,10.38,2.75a7.89,7.89,0,0,1,3.14,6.65c0,3.64-2.41,6.82-6.39,8.28v.11c3.58.89,7.79,3.86,7.79,9.45a10.15,10.15,0,0,1-3.2,7.55c-2.63,2.4-6.89,3.52-13.06,3.52a62.32,62.32,0,0,1-6.77-.34,5.67,5.67,0,0,0,3.71,1.39H537.7v4.46h-5.09a2,2,0,0,0,0,4H550a2,2,0,0,0,0-4h-5.19v-4.46H567a3,3,0,0,0,3-3V723A3,3,0,0,0,567,720Z"/><polygon class="cls-3" points="559.67 755.04 549.73 749.86 539.83 755.11 541.68 744.06 533.63 736.26 544.72 734.61 549.64 724.55 554.63 734.58 565.73 736.15 557.73 744 559.67 755.04"/><line class="cls-1" x1="516.08" y1="727.15" x2="511.08" y2="727.15"/><line class="cls-1" x1="515.93" y1="735.7" x2="510.94" y2="735.7"/><line class="cls-1" x1="515.97" y1="743.23" x2="510.97" y2="743.23"/><line class="cls-1" x1="515.97" y1="754.42" x2="510.97" y2="754.42"/><circle class="cls-4" cx="510.46" cy="727.21" r="0.86"/><circle class="cls-4" cx="510.46" cy="727.21" r="0.86"/><circle class="cls-4" cx="510.46" cy="735.53" r="0.86"/><circle class="cls-4" cx="510.46" cy="754.24" r="0.86"/><circle class="cls-4" cx="510.46" cy="743.29" r="0.86"/></svg>